<svg width="108" height="24" viewBox="0 0 108 24" fill="none" xmlns="http://www.w3.org/2000/svg">
<path d="M12.8971 0C19.461 0 25 5.49197 25 12C25 18.508 19.461 24 12.8971 24C6.33333 24 1 18.508 1 12C1 5.49197 6.33333 0 12.8971 0ZM12.8971 3.12748C7.95619 3.12748 3.94857 7.10104 3.94857 12C3.94857 16.899 7.95619 20.8725 12.8971 20.8725C17.8381 20.8725 21.8457 16.899 21.8457 12C21.8457 7.10104 17.8381 3.12748 12.8971 3.12748Z" fill="white"/>
<path d="M11.0495 7.86025C12.0133 6.90463 13.5752 6.90463 14.539 7.86025L16.8667 10.1681C17.8305 11.1237 17.8305 12.6723 16.8667 13.628L14.539 15.9358C13.5752 16.8914 12.0133 16.8914 11.0495 15.9358L8.72191 13.628C7.7581 12.6723 7.7581 11.1237 8.72191 10.1681L11.0495 7.86025ZM12.7943 9.85836C11.659 9.85836 10.7371 10.7724 10.7371 11.898C10.7371 13.0236 11.659 13.9377 12.7943 13.9377C13.9295 13.9377 14.8514 13.0236 14.8514 11.898C14.8514 10.7724 13.9295 9.85836 12.7943 9.85836Z" fill="white"/>
<path d="M38.8691 19.4756C37.1048 19.4756 35.6953 19.0719 34.6406 18.2646C33.5924 17.4574 33.0456 16.2692 33 14.7002H35.9785C36.0306 15.4294 36.3171 15.9795 36.8379 16.3506C37.3652 16.7152 38.0293 16.8975 38.8301 16.8975C39.6113 16.8975 40.2363 16.7314 40.7051 16.3994C41.1803 16.0674 41.418 15.6344 41.418 15.1006C41.418 14.6123 41.2031 14.238 40.7734 13.9775C40.3438 13.7106 39.7318 13.4827 38.9375 13.2939L37.3457 12.9033C36.1217 12.6104 35.1549 12.1449 34.4453 11.5068C33.7422 10.8623 33.3906 10.0029 33.3906 8.92871C33.3906 8.0498 33.6283 7.28158 34.1035 6.62402C34.5788 5.95996 35.2298 5.44564 36.0566 5.08105C36.89 4.70996 37.8372 4.52441 38.8984 4.52441C39.9792 4.52441 40.9232 4.70996 41.7305 5.08105C42.5378 5.45215 43.166 5.96647 43.6152 6.62402C44.071 7.28158 44.3053 8.04004 44.3184 8.89941H41.3496C41.2975 8.33301 41.0566 7.8903 40.627 7.57129C40.1973 7.25228 39.6146 7.09277 38.8789 7.09277C38.1302 7.09277 37.554 7.24902 37.1504 7.56152C36.7467 7.86751 36.5449 8.25814 36.5449 8.7334C36.5449 9.24772 36.7695 9.63835 37.2188 9.90527C37.668 10.1657 38.2083 10.3708 38.8398 10.5205L40.1387 10.8428C40.985 11.0316 41.737 11.3083 42.3945 11.6729C43.0521 12.0309 43.5697 12.4932 43.9473 13.0596C44.3249 13.6195 44.5137 14.3031 44.5137 15.1104C44.5137 16.445 44.0156 17.5062 43.0195 18.2939C42.0234 19.0817 40.64 19.4756 38.8691 19.4756Z" fill="white"/>
<path d="M49.6504 4.71973V19.2705H46.584V4.71973H49.6504Z" fill="white"/>
<path d="M57.3457 19.2705H52.1895V4.71973H57.3848C58.8496 4.71973 60.1094 5.0127 61.1641 5.59863C62.2188 6.17806 63.0293 7.01139 63.5957 8.09863C64.1686 9.17936 64.4551 10.4749 64.4551 11.9854C64.4551 13.5023 64.1686 14.8044 63.5957 15.8916C63.0293 16.9788 62.2155 17.8154 61.1543 18.4014C60.0931 18.9808 58.8236 19.2705 57.3457 19.2705ZM55.2559 16.6338H57.209C58.5827 16.6338 59.6243 16.266 60.334 15.5303C61.0436 14.7946 61.3984 13.613 61.3984 11.9854C61.3984 10.3708 61.0436 9.19564 60.334 8.45996C59.6243 7.72428 58.5827 7.35645 57.209 7.35645H55.2559V16.6338Z" fill="white"/>
<path d="M66.7402 19.2705V4.71973H76.5449V7.25879H69.8066V10.6768H76.0273V13.167H69.8066V16.7314H76.5645V19.2705H66.7402Z" fill="white"/>
<path d="M85.7148 12.1025V14.5049H79.084V12.1025H85.7148Z" fill="white"/>
<path d="M97.3457 4.71973H100.412V14.1533C100.412 15.2145 100.161 16.1455 99.6602 16.9463C99.1589 17.7406 98.4557 18.359 97.5508 18.8018C96.6458 19.2445 95.5911 19.4658 94.3867 19.4658C93.1758 19.4658 92.1178 19.2445 91.2129 18.8018C90.3145 18.359 89.6146 17.7406 89.1133 16.9463C88.612 16.1455 88.3613 15.2145 88.3613 14.1533V4.71973H91.4277V13.8994C91.4277 14.7327 91.6979 15.4196 92.2383 15.96C92.7786 16.4938 93.4948 16.7607 94.3867 16.7607C95.2786 16.7607 95.9948 16.4938 96.5352 15.96C97.0755 15.4196 97.3457 14.7327 97.3457 13.8994V4.71973Z" fill="white"/>
<path d="M106.018 4.71973V19.2705H102.951V4.71973H106.018Z" fill="white"/>
</svg>
